<svg id="visual" viewBox="0 0 1920 1080" width="1920" height="1080" xmlns="http://www.w3.org/2000/svg" xmlns:xlink="http://www.w3.org/1999/xlink" version="1.1"><path d="M0 55L274 55L274 33L549 33L549 66L823 66L823 44L1097 44L1097 44L1371 44L1371 44L1646 44L1646 66L1920 66L1920 33L1920 0L1920 0L1646 0L1646 0L1371 0L1371 0L1097 0L1097 0L823 0L823 0L549 0L549 0L274 0L274 0L0 0Z" fill="#e34c67"></path><path d="M0 120L274 120L274 98L549 98L549 109L823 109L823 98L1097 98L1097 120L1371 120L1371 87L1646 87L1646 109L1920 109L1920 87L1920 31L1920 64L1646 64L1646 42L1371 42L1371 42L1097 42L1097 42L823 42L823 64L549 64L549 31L274 31L274 53L0 53Z" fill="#cd446e"></path><path d="M0 228L274 228L274 185L549 185L549 217L823 217L823 239L1097 239L1097 228L1371 228L1371 174L1646 174L1646 195L1920 195L1920 206L1920 85L1920 107L1646 107L1646 85L1371 85L1371 118L1097 118L1097 96L823 96L823 107L549 107L549 96L274 96L274 118L0 118Z" fill="#b43f72"></path><path d="M0 465L274 465L274 368L549 368L549 401L823 401L823 487L1097 487L1097 519L1371 519L1371 433L1646 433L1646 390L1920 390L1920 379L1920 204L1920 193L1646 193L1646 172L1371 172L1371 226L1097 226L1097 237L823 237L823 215L549 215L549 183L274 183L274 226L0 226Z" fill="#9a3c72"></path><path d="M0 509L274 509L274 411L549 411L549 455L823 455L823 530L1097 530L1097 563L1371 563L1371 498L1646 498L1646 433L1920 433L1920 422L1920 377L1920 388L1646 388L1646 431L1371 431L1371 517L1097 517L1097 485L823 485L823 399L549 399L549 366L274 366L274 463L0 463Z" fill="#80396f"></path><path d="M0 617L274 617L274 509L549 509L549 552L823 552L823 660L1097 660L1097 649L1371 649L1371 649L1646 649L1646 552L1920 552L1920 519L1920 420L1920 431L1646 431L1646 496L1371 496L1371 561L1097 561L1097 528L823 528L823 453L549 453L549 409L274 409L274 507L0 507Z" fill="#663668"></path><path d="M0 692L274 692L274 573L549 573L549 638L823 638L823 725L1097 725L1097 725L1371 725L1371 735L1646 735L1646 617L1920 617L1920 606L1920 517L1920 550L1646 550L1646 647L1371 647L1371 647L1097 647L1097 658L823 658L823 550L549 550L549 507L274 507L274 615L0 615Z" fill="#4e325e"></path><path d="M0 897L274 897L274 865L549 865L549 865L823 865L823 908L1097 908L1097 887L1371 887L1371 887L1646 887L1646 887L1920 887L1920 887L1920 604L1920 615L1646 615L1646 733L1371 733L1371 723L1097 723L1097 723L823 723L823 636L549 636L549 571L274 571L274 690L0 690Z" fill="#382c51"></path><path d="M0 962L274 962L274 951L549 951L549 951L823 951L823 962L1097 962L1097 962L1371 962L1371 962L1646 962L1646 941L1920 941L1920 973L1920 885L1920 885L1646 885L1646 885L1371 885L1371 885L1097 885L1097 906L823 906L823 863L549 863L549 863L274 863L274 895L0 895Z" fill="#262542"></path><path d="M0 1005L274 1005L274 1005L549 1005L549 995L823 995L823 1005L1097 1005L1097 1016L1371 1016L1371 995L1646 995L1646 995L1920 995L1920 1005L1920 971L1920 939L1646 939L1646 960L1371 960L1371 960L1097 960L1097 960L823 960L823 949L549 949L549 949L274 949L274 960L0 960Z" fill="#181e32"></path><path d="M0 1038L274 1038L274 1038L549 1038L549 1038L823 1038L823 1049L1097 1049L1097 1049L1371 1049L1371 1027L1646 1027L1646 1027L1920 1027L1920 1038L1920 1003L1920 993L1646 993L1646 993L1371 993L1371 1014L1097 1014L1097 1003L823 1003L823 993L549 993L549 1003L274 1003L274 1003L0 1003Z" fill="#0e1521"></path><path d="M0 1081L274 1081L274 1081L549 1081L549 1081L823 1081L823 1081L1097 1081L1097 1081L1371 1081L1371 1081L1646 1081L1646 1081L1920 1081L1920 1081L1920 1036L1920 1025L1646 1025L1646 1025L1371 1025L1371 1047L1097 1047L1097 1047L823 1047L823 1036L549 1036L549 1036L274 1036L274 1036L0 1036Z" fill="#020810"></path></svg>